<svg xmlns="http://www.w3.org/2000/svg" viewBox="0 0 85.4 67.7">
  <style>
    <!-- .quote-color{fill:#CFCFCF;} -->
  </style>
  <path class="quote-color" d="M80.9 2.3c1.2 0 2.1.9 2.1 2.1v9c0 .5-.4.9-.8.9-9.7 1.3-15.3 7.3-16.2 17.3-.1 1 .3 2.1 1 2.9.7.8 1.7 1.2 2.8 1.2h11.5c1 0 1.8.8 1.8 1.8v26.1c0 1-.8 1.8-1.8 1.8H59.6c-3.3 0-6-2.7-6-6v-26c0-17.4 8.8-27.5 27-31 .1-.1.2-.1.3-.1m-51.2 0c1.2 0 2.1.9 2.1 2.1v9c0 .5-.4.9-.8.9-9.7 1.3-15.3 7.3-16.2 17.3-.1 1 .3 2.1 1 2.9.7.8 1.7 1.2 2.8 1.2H30c1 0 1.8.8 1.8 1.8v26.1c0 1-.8 1.8-1.8 1.8H8.3c-3.3 0-6-2.7-6-6v-26c0-17.4 8.8-27.5 27-31 .1-.1.3-.1.4-.1M80.9 0c-.3 0-.6 0-.9.1-19.1 3.7-28.8 14.8-28.8 33.3v26c0 4.6 3.7 8.3 8.3 8.3h21.7c2.3 0 4.1-1.8 4.1-4.1V37.5c0-2.3-1.8-4.1-4.1-4.1H69.7c-.8 0-1.5-.7-1.4-1.6.8-9 5.5-14 14.2-15.2 1.6-.2 2.8-1.6 2.8-3.2v-9c.1-2.5-2-4.4-4.4-4.4zM29.7 0c-.3 0-.6 0-.9.1C9.6 3.8 0 14.9 0 33.4v26c0 4.6 3.7 8.3 8.3 8.3H30c2.3 0 4.1-1.8 4.1-4.1V37.5c0-2.3-1.8-4.1-4.1-4.1H18.5c-.8 0-1.5-.7-1.4-1.6.8-9 5.5-14 14.2-15.2 1.6-.2 2.8-1.6 2.8-3.2v-9c0-2.5-2-4.4-4.4-4.4z"/>
</svg>
